<?xml version="1.0" standalone="no"?>
<!DOCTYPE svg PUBLIC "-//W3C//DTD SVG 20010904//EN"
 "http://www.w3.org/TR/2001/REC-SVG-20010904/DTD/svg10.dtd">
<svg version="1.0" xmlns="http://www.w3.org/2000/svg"
 width="260.000000pt" height="260.000000pt" viewBox="0 0 260.000000 260.000000"
 preserveAspectRatio="xMidYMid meet">
<metadata>
Created by potrace 1.14, written by Peter Selinger 2001-2017
</metadata>
<g transform="translate(0.000000,260.000000) scale(0.100000,-0.100000)"
fill="#000000" stroke="none">
<path d="M866 2479 c5 -9 2 -10 -9 -6 -10 3 -17 2 -17 -4 0 -6 -4 -8 -9 -5
-15 9 -42 -5 -34 -18 4 -6 -2 -4 -12 4 -10 8 -16 10 -12 4 4 -7 -3 -14 -18
-18 -14 -4 -23 -11 -20 -16 3 -6 0 -10 -8 -10 -8 0 -18 -7 -21 -16 -4 -9 -9
-14 -13 -11 -7 7 -43 -36 -43 -52 0 -6 -4 -11 -10 -11 -5 0 -10 -7 -10 -15 0
-9 -6 -18 -14 -21 -8 -3 -12 -12 -9 -20 3 -8 0 -14 -7 -14 -6 0 -8 -4 -5 -10
3 -5 1 -10 -6 -10 -7 0 -9 -3 -6 -7 4 -3 2 -12 -4 -20 -9 -9 -8 -13 0 -13 6 0
11 -6 11 -13 0 -7 9 -13 19 -13 13 0 17 4 11 11 -5 6 5 10 31 10 28 0 39 -4
40 -15 1 -8 2 -26 3 -40 1 -14 10 -40 19 -59 14 -27 15 -36 5 -43 -10 -6 -10
-8 0 -8 6 0 12 -7 12 -16 0 -8 4 -13 9 -9 5 3 12 1 16 -5 4 -7 12 -7 24 0 10
5 21 6 25 3 3 -3 6 -1 6 5 0 7 5 12 11 12 5 0 7 -6 4 -12 -4 -7 3 -2 15 12 12
14 19 19 15 12 -6 -11 -3 -11 13 -1 12 7 18 17 15 23 -4 5 -1 6 8 0 8 -5 23
-9 34 -9 11 -1 19 -7 17 -14 -1 -7 2 -10 8 -6 18 11 32 -5 19 -21 -10 -12 -8
-13 7 -8 16 6 16 4 -3 -15 -25 -24 -30 -37 -10 -25 7 5 6 0 -3 -10 -8 -11 -13
-30 -12 -44 3 -18 0 -22 -10 -17 -10 6 -10 5 -1 -5 8 -9 9 -19 2 -32 -7 -12
-6 -18 1 -18 7 0 8 -6 1 -18 -6 -11 -6 -24 1 -36 8 -14 7 -17 -1 -12 -6 4 -11
1 -11 -8 0 -9 5 -16 11 -16 8 0 8 -4 -1 -15 -6 -8 -9 -18 -6 -24 3 -5 -1 -12
-10 -15 -8 -3 -13 -10 -10 -15 8 -12 -14 -61 -26 -61 -5 0 -6 -4 -3 -10 3 -5
-5 -21 -19 -35 -14 -14 -26 -28 -26 -30 0 -3 -3 -5 -7 -4 -5 0 -10 -9 -13 -21
-3 -12 -8 -20 -11 -18 -3 2 -18 -10 -34 -27 -15 -16 -21 -21 -14 -11 13 18 12
18 -7 8 -12 -6 -24 -8 -28 -4 -4 3 -11 0 -16 -8 -7 -10 -10 -11 -10 -2 0 16
-32 16 -49 0 -11 -10 -13 -10 -7 0 9 14 -20 17 -29 2 -3 -5 -12 -10 -18 -10
-7 0 -6 4 3 10 11 7 8 9 -15 8 -16 -1 -33 -7 -37 -13 -5 -6 -8 -6 -8 3 0 16
-32 16 -49 -1 -11 -9 -13 -9 -7 1 9 15 -20 17 -29 2 -5 -8 -11 -7 -21 1 -11 9
-14 8 -14 -2 0 -11 -2 -11 -10 1 -6 10 -10 11 -10 3 0 -7 -7 -13 -15 -13 -9 0
-12 -6 -8 -17 4 -11 3 -14 -5 -9 -8 5 -10 2 -6 -8 4 -10 1 -16 -7 -16 -12 0
-12 -2 0 -9 8 -5 11 -16 8 -25 -4 -9 -2 -16 4 -16 6 0 7 -5 4 -10 -4 -6 -3
-10 2 -9 19 3 46 -1 40 -7 -10 -11 22 -36 35 -28 9 5 8 2 -1 -9 -12 -15 -12
-17 1 -12 9 4 26 -4 41 -19 15 -14 30 -26 34 -26 5 0 14 -9 21 -21 7 -11 19
-18 26 -16 7 3 18 -4 24 -14 7 -10 18 -18 25 -16 14 2 11 -46 -4 -51 -5 -2 -4
-12 1 -23 8 -15 7 -17 -4 -13 -11 4 -14 0 -11 -15 2 -14 -1 -21 -11 -21 -8 0
-13 -4 -10 -9 6 -9 -37 -7 -53 3 -5 3 -12 0 -14 -6 -4 -10 -6 -10 -6 0 -1 6
-6 12 -12 12 -5 0 -8 -4 -5 -8 2 -4 -4 -8 -14 -8 -10 0 -16 4 -14 8 6 10 -26
-1 -43 -15 -9 -7 -13 -4 -13 9 -1 18 -1 18 -11 1 -7 -11 -18 -16 -35 -13 -13
3 -22 1 -19 -4 6 -10 -23 -22 -36 -14 -5 3 -9 1 -9 -5 0 -6 -18 -16 -40 -22
-22 -7 -40 -18 -40 -25 0 -7 -5 -16 -12 -20 -7 -5 -9 -2 -4 7 4 8 1 6 -7 -3
-8 -10 -18 -14 -22 -10 -5 4 -5 -1 -2 -10 4 -13 2 -15 -10 -11 -13 5 -15 2
-10 -11 4 -9 3 -15 -2 -12 -4 3 -17 -2 -27 -10 -10 -9 -12 -12 -4 -9 8 4 0 -7
-19 -24 -18 -17 -28 -31 -22 -31 8 0 8 -4 -1 -14 -7 -8 -16 -12 -20 -10 -3 2
-4 -6 0 -18 4 -16 2 -19 -8 -13 -10 6 -12 4 -7 -8 3 -10 2 -17 -4 -17 -6 0 -8
-4 -4 -9 3 -6 -3 -14 -12 -20 -10 -6 -13 -11 -7 -11 6 0 11 -7 11 -15 0 -9 -6
-14 -12 -11 -8 3 -12 -28 -14 -110 -1 -63 2 -114 7 -114 4 0 8 -12 8 -27 -1
-20 4 -27 14 -25 10 1 9 -2 -4 -13 -19 -14 -19 -15 -1 -15 10 0 15 -3 12 -6
-3 -4 0 -16 8 -26 7 -11 11 -27 8 -35 -3 -8 0 -13 8 -11 8 2 13 -4 13 -14 -1
-10 2 -16 6 -13 5 3 11 -4 15 -15 3 -11 11 -20 16 -20 6 0 7 -5 4 -10 -4 -6
-1 -9 7 -8 7 2 12 -5 12 -14 -1 -11 4 -14 14 -11 10 4 13 2 8 -5 -4 -7 -1 -12
9 -12 9 0 13 -4 10 -10 -3 -5 3 -10 15 -10 12 0 19 -4 16 -9 -3 -5 4 -11 15
-14 12 -3 18 -10 14 -16 -4 -7 0 -8 11 -4 10 4 20 0 26 -11 5 -9 14 -13 20
-10 6 4 13 1 17 -5 4 -6 22 -13 39 -14 18 -1 30 -7 28 -13 -2 -6 2 -11 10 -11
7 0 10 5 7 11 -4 7 -1 7 8 -1 19 -15 189 -15 208 0 11 9 13 9 8 0 -5 -7 0 -9
13 -6 11 3 17 9 14 14 -3 5 2 6 10 3 9 -3 16 -1 16 5 0 6 5 11 11 11 5 0 7 -6
4 -12 -4 -7 1 -4 9 6 9 11 16 17 16 13 0 -8 78 32 86 44 3 5 11 6 17 3 7 -4 9
-4 5 1 -9 9 46 65 64 65 6 0 9 3 6 6 -8 8 34 50 46 46 5 -2 4 3 -3 11 -9 12
-8 16 4 21 9 3 13 10 10 16 -3 5 -1 10 5 10 7 0 9 7 6 16 -4 10 -2 13 6 8 8
-5 9 -2 5 10 -4 9 -3 15 2 12 10 -7 21 17 21 45 0 10 6 19 13 19 8 0 7 4 -3
10 -13 8 -13 11 -1 19 7 5 11 13 7 19 -3 6 -1 12 5 14 8 3 6 10 -5 21 -16 16
-16 17 0 17 13 0 14 3 4 15 -9 11 -9 15 -1 15 8 0 9 5 1 19 -7 14 -7 22 1 27
8 5 6 10 -5 16 -14 8 -15 13 -5 24 6 8 7 14 2 14 -5 0 -10 11 -11 26 -1 14 -6
33 -12 43 -5 10 -6 21 -3 25 3 3 1 6 -6 6 -7 0 -9 5 -6 10 3 6 1 10 -6 10 -7
0 -9 3 -6 7 4 3 -1 12 -11 20 -11 10 -12 12 -2 8 8 -4 4 2 -9 13 -15 12 -21
24 -16 32 6 9 4 11 -4 6 -8 -5 -14 0 -18 13 -3 12 -9 21 -14 21 -15 0 -61 49
-55 59 3 5 -3 7 -15 4 -15 -4 -22 0 -26 16 -4 15 -9 19 -18 11 -8 -7 -15 -3
-24 16 -8 19 -8 24 1 18 7 -5 9 -2 5 8 -3 9 1 24 8 35 9 11 14 13 15 5 0 -7 4
-11 8 -8 5 3 16 -4 25 -15 10 -11 23 -17 29 -13 7 4 8 3 4 -4 -4 -7 -1 -12 9
-12 9 0 14 -4 11 -9 -3 -5 8 -14 24 -21 17 -7 30 -19 30 -27 0 -8 4 -12 9 -9
4 3 17 -2 27 -10 10 -9 13 -12 5 -8 -9 5 -12 3 -7 -4 4 -7 14 -12 23 -12 8 0
28 -13 43 -30 15 -16 31 -30 34 -30 3 0 15 -8 25 -18 32 -28 45 -38 64 -45 9
-3 17 -14 17 -24 0 -15 2 -16 10 -3 8 13 10 13 10 -2 0 -9 5 -20 12 -24 7 -4
8 -3 4 4 -4 7 -3 12 3 12 5 0 13 -9 16 -21 4 -11 9 -18 12 -15 3 2 16 -7 29
-21 18 -19 21 -29 13 -39 -6 -7 -8 -18 -4 -24 3 -5 1 -10 -5 -10 -6 0 -8 -5
-5 -10 4 -6 1 -17 -5 -25 -6 -8 -8 -20 -4 -26 5 -9 2 -10 -9 -6 -16 6 -16 5
-1 -18 8 -13 15 -25 14 -27 -4 -8 13 -37 19 -34 4 3 13 1 21 -5 11 -6 12 -9 2
-9 -7 0 -11 -4 -7 -10 3 -5 -8 -16 -25 -25 -16 -8 -30 -18 -30 -21 0 -3 5 -2
12 2 7 4 8 3 4 -4 -4 -7 -14 -12 -22 -12 -8 0 -13 -4 -9 -9 3 -5 -4 -13 -16
-16 -16 -5 -18 -9 -9 -15 9 -6 7 -10 -8 -14 -11 -4 -22 -15 -25 -26 -6 -22 28
-67 38 -50 3 5 11 10 16 10 6 0 7 -5 4 -10 -7 -11 36 -7 55 5 5 3 10 1 10 -6
0 -9 4 -9 15 1 8 6 19 9 25 5 5 -3 10 -2 10 4 0 6 6 8 14 5 8 -3 17 0 21 5 3
6 11 9 16 6 5 -4 9 -1 9 4 0 6 9 11 20 11 11 0 20 5 20 11 0 5 5 7 11 3 6 -3
15 -1 19 5 4 7 16 13 27 14 12 0 19 6 16 13 -2 7 1 15 8 20 8 4 10 3 5 -4 -10
-17 9 -15 24 3 7 8 16 12 21 9 5 -3 9 1 9 8 0 7 10 19 21 27 18 10 19 15 8 22
-9 6 -10 9 -2 9 17 0 28 -21 24 -47 -1 -13 2 -23 7 -23 6 0 13 -7 16 -16 5
-12 3 -14 -7 -8 -7 5 -6 2 3 -6 8 -9 16 -22 18 -30 2 -8 8 -18 14 -21 6 -4 8
-14 5 -22 -4 -11 -1 -14 9 -10 7 3 14 0 14 -7 0 -6 6 -17 13 -24 6 -8 19 -23
27 -35 8 -11 20 -21 26 -21 7 0 15 -7 18 -16 4 -10 12 -14 22 -10 14 5 15 4 4
-9 -11 -13 -10 -14 4 -9 11 4 16 1 16 -12 0 -16 2 -16 10 -4 8 12 10 12 16 -3
3 -9 10 -15 14 -12 5 3 11 1 15 -5 4 -6 11 -8 16 -5 5 4 9 1 9 -4 0 -6 11 -11
25 -11 14 0 25 -5 25 -12 0 -6 3 -8 7 -5 3 4 13 1 21 -6 9 -6 13 -7 9 -1 -3 6
0 11 8 11 8 0 12 -4 9 -9 -3 -5 43 -8 105 -7 61 1 110 4 109 8 -2 18 3 24 11
12 7 -12 12 -11 30 1 11 8 18 18 13 23 -4 4 3 3 14 -3 18 -9 25 -8 39 8 10 11
22 20 27 20 5 0 18 9 30 20 12 10 25 17 30 14 5 -3 7 -2 6 3 -4 10 39 53 53
53 5 0 7 5 4 10 -3 6 -1 10 5 10 6 0 8 5 5 11 -4 6 0 9 11 7 14 -2 19 3 18 20
-1 12 4 22 12 22 8 0 11 8 9 20 -2 11 0 18 6 15 8 -5 11 1 8 21 0 3 8 12 18
21 10 8 11 11 3 7 -13 -7 -13 -5 -1 9 7 9 10 17 5 17 -4 0 1 7 12 15 19 15 19
15 -1 9 -18 -5 -18 -4 -4 8 13 10 16 35 17 121 1 59 -2 105 -7 103 -4 -3 -7 7
-8 22 -1 47 -3 53 -12 47 -6 -3 -8 4 -6 15 2 11 0 20 -6 20 -5 0 -8 6 -7 12 2
7 -3 12 -10 10 -9 -2 -12 4 -7 17 3 12 0 21 -10 25 -8 3 -15 12 -15 21 0 8 -8
15 -17 15 -15 0 -16 2 -3 10 13 8 12 10 -2 10 -10 0 -18 7 -18 16 0 8 -3 13
-7 11 -10 -6 -34 19 -26 27 6 5 -12 10 -29 7 -4 0 -5 6 -2 14 5 11 2 13 -12 8
-12 -4 -15 -3 -10 5 6 11 1 14 -20 11 -3 0 -12 8 -21 18 -8 10 -11 11 -7 3 7
-12 5 -13 -8 -3 -8 7 -18 10 -22 6 -4 -4 -4 0 -1 8 5 12 0 16 -17 15 -13 -1
-26 2 -29 7 -3 4 -16 9 -27 10 -12 1 -22 6 -22 12 0 5 -5 3 -10 -5 -5 -8 -10
-10 -10 -4 0 7 -16 11 -39 10 -22 0 -37 2 -34 7 5 9 -11 9 -21 0 -10 -10 -37
-13 -31 -3 7 12 -34 4 -49 -9 -9 -7 -16 -7 -24 1 -9 9 -12 9 -12 -1 0 -9 -9
-12 -25 -9 -13 3 -22 2 -20 -2 4 -7 -26 -19 -46 -20 -4 0 -14 12 -24 26 -11
18 -13 24 -4 19 8 -4 4 2 -9 14 -12 12 -19 27 -16 33 4 6 3 8 -3 5 -6 -4 -17
1 -24 10 -12 14 -12 16 1 9 8 -4 4 1 -9 12 -16 13 -22 26 -19 40 4 16 2 19
-10 15 -9 -4 -13 -2 -9 3 3 6 -3 17 -14 24 -20 15 -26 50 -8 50 5 0 8 3 6 8
-3 4 6 8 19 8 13 1 24 -3 24 -10 0 -6 5 -4 10 4 5 8 10 10 10 4 0 -6 12 -10
28 -10 15 1 35 -2 45 -7 11 -5 23 -4 31 2 7 6 16 8 19 4 4 -3 7 1 7 11 0 11 5
15 13 10 6 -4 9 -4 5 1 -4 4 -2 15 5 23 10 13 9 15 -3 8 -8 -4 -7 -1 4 8 10 8
16 22 13 31 -4 8 -3 15 2 15 4 0 8 7 9 15 1 8 3 22 4 30 1 8 6 15 11 15 5 0 3
8 -4 17 -10 11 -10 14 -1 9 16 -9 15 -6 -4 32 -16 34 -29 40 -37 20 -3 -8 -6
-7 -6 4 -1 9 4 20 9 23 6 4 8 11 5 16 -4 5 0 9 8 9 11 0 13 7 9 22 -3 14 -2
19 6 14 7 -4 13 -2 13 3 1 6 3 16 4 21 1 6 3 17 4 26 0 8 5 13 9 10 5 -3 9 1
9 9 0 8 -5 15 -10 15 -5 0 -3 8 4 17 12 15 12 16 -1 8 -13 -8 -13 -7 -1 8 9
11 10 17 2 17 -6 0 -11 7 -11 15 0 8 -6 15 -12 15 -9 0 -8 4 2 10 13 8 12 10
-3 10 -10 0 -16 3 -14 8 7 10 -19 32 -29 24 -4 -4 -4 1 -1 10 3 10 3 17 -1 16
-15 -3 -42 15 -42 28 0 7 8 17 18 23 14 8 15 12 3 23 -12 11 -13 11 -6 -1 5
-9 4 -12 -3 -7 -7 4 -12 15 -12 24 0 12 -3 13 -12 4 -15 -15 -31 -16 -22 0 5
8 2 9 -9 5 -9 -3 -16 -3 -14 1 1 4 -1 8 -6 9 -17 5 -113 59 -119 68 -5 7 -8 7
-8 0 0 -5 -5 -2 -11 8 -5 9 -17 17 -24 17 -8 0 -15 5 -15 11 0 5 -4 8 -9 4 -6
-3 -22 7 -37 22 -15 16 -21 19 -13 8 13 -19 13 -19 -6 -4 -11 10 -29 19 -40
21 -11 2 -19 10 -17 17 1 7 -2 10 -8 6 -6 -4 -18 -1 -27 7 -12 9 -15 9 -9 1 4
-7 2 -13 -3 -13 -6 0 -11 4 -11 10 0 5 -7 6 -17 3 -10 -4 -14 -2 -9 5 4 7 -1
10 -14 7 -11 -2 -20 1 -20 7 0 7 -5 6 -14 -1 -11 -9 -16 -9 -21 -1 -4 7 -16
10 -26 7 -11 -3 -20 1 -22 12 -4 14 -5 13 -6 -2 -1 -15 -5 -16 -21 -7 -15 8
-20 8 -20 -2 0 -9 -3 -9 -11 2 -8 11 -12 12 -16 3 -2 -7 -9 -13 -14 -13 -6 0
-7 6 -3 13 4 6 -3 3 -16 -8 -13 -11 -20 -14 -16 -7 8 14 -3 16 -24 2 -9 -6
-17 -5 -22 3 -5 8 -8 7 -8 -4 0 -12 -7 -15 -27 -12 -16 2 -34 5 -40 5 -7 1
-13 8 -13 17 0 14 -2 14 -10 1 -7 -11 -10 -11 -10 -2 0 7 -4 11 -9 8 -5 -4 -7
3 -4 14 3 11 10 20 15 20 6 0 4 8 -3 17 -12 14 -12 15 0 9 10 -7 12 -3 6 13
-3 11 -3 21 2 21 5 0 9 9 9 20 0 11 -4 20 -8 20 -5 0 -4 8 1 19 6 10 7 22 3
26 -4 5 0 6 9 3 9 -4 16 -1 16 8 0 7 -5 11 -11 8 -6 -3 0 4 14 15 17 14 20 21
10 21 -12 0 -13 2 -1 9 9 6 10 11 2 15 -6 4 -9 12 -6 17 4 5 1 9 -5 9 -6 0 -8
5 -5 10 4 6 1 9 -7 8 -7 -2 -12 3 -10 10 2 10 -4 11 -19 7 -16 -5 -19 -4 -14
6 6 9 3 11 -8 6 -10 -4 -20 0 -26 11 -6 9 -11 12 -11 6 0 -6 -7 -11 -15 -11
-8 0 -12 4 -9 8 6 10 -38 5 -55 -6 -10 -5 -12 -4 -7 3 4 7 1 12 -8 12 -9 0
-16 -6 -16 -12 0 -8 -3 -9 -8 -3 -10 15 -35 18 -26 4z m407 -733 c-4 -6 1 -7
13 -2 10 4 15 4 12 0 -8 -8 16 -34 32 -34 6 0 9 -4 6 -9 -3 -5 1 -12 10 -15 8
-3 12 -11 8 -17 -4 -8 -3 -9 5 -5 7 5 23 -5 40 -23 16 -17 38 -31 49 -31 24 0
42 -22 24 -28 -7 -2 -9 -9 -5 -15 4 -7 0 -8 -11 -4 -9 4 -15 3 -13 -1 3 -4 -1
-13 -9 -20 -8 -7 -14 -10 -14 -6 0 4 -12 -6 -26 -22 -15 -16 -23 -22 -19 -14
4 8 -2 6 -12 -6 -10 -12 -26 -24 -36 -27 -10 -4 -16 -11 -13 -16 4 -5 0 -12
-6 -14 -7 -3 -4 -6 6 -6 20 -1 20 -1 0 -17 -10 -8 -12 -13 -4 -9 8 4 6 0 -4
-9 -10 -8 -23 -13 -27 -10 -5 3 -6 -2 -3 -11 4 -9 3 -15 -2 -14 -18 3 -34 -1
-32 -8 2 -5 -1 -9 -6 -10 -5 -1 -15 -15 -24 -32 -8 -17 -21 -31 -28 -31 -8 0
-14 -7 -14 -15 0 -8 -5 -15 -11 -15 -5 0 -7 -5 -3 -12 5 -7 2 -9 -9 -5 -9 3
-18 1 -20 -6 -3 -9 -8 -8 -20 2 -13 10 -17 10 -17 1 0 -9 -4 -9 -17 1 -11 10
-14 10 -9 2 9 -16 -6 -17 -22 -1 -7 7 -12 8 -12 2 0 -12 -29 -12 -47 -1 -6 4
-15 3 -18 -3 -5 -8 -11 -7 -21 1 -11 9 -14 9 -14 -1 0 -9 -4 -9 -17 1 -11 10
-14 10 -9 2 9 -16 1 -16 -26 -2 -15 8 -19 8 -14 0 4 -6 2 -11 -3 -11 -6 0 -11
6 -12 13 0 9 -2 9 -6 0 -3 -10 -10 -10 -25 -2 -13 7 -18 7 -14 1 4 -7 -4 -9
-21 -7 -16 2 -32 4 -36 4 -12 1 -4 22 8 23 6 0 22 9 37 20 16 10 32 16 38 13
5 -3 10 1 10 10 0 9 4 14 9 10 6 -3 15 4 21 15 6 11 15 18 20 15 5 -3 13 3 19
12 5 10 13 17 18 16 4 -2 8 1 8 7 0 14 41 41 49 32 4 -3 4 2 0 12 -4 11 -3 17
2 14 5 -2 20 7 34 20 14 14 18 22 10 18 -9 -5 -8 -2 2 7 10 8 15 16 12 20 -3
3 4 8 15 12 12 3 19 11 16 16 -4 5 -1 9 5 9 7 0 10 7 6 15 -3 10 1 15 12 15
15 0 15 2 2 10 -10 6 -11 10 -2 10 6 0 12 7 12 15 0 8 5 15 10 15 6 0 10 11
10 25 0 14 7 28 15 31 12 5 13 10 4 20 -8 9 -8 14 -1 14 6 0 9 11 6 24 -2 14
0 28 6 31 6 4 7 11 4 17 -5 7 -2 9 7 6 8 -3 23 -2 34 2 23 9 77 -18 68 -34z
m-709 -552 c3 -8 2 -12 -4 -9 -6 3 -10 10 -10 16 0 14 7 11 14 -7z m1042 -81
c-5 -15 -3 -14 10 2 13 16 15 16 11 3 -4 -10 0 -21 9 -26 9 -5 15 -12 15 -15
-3 -20 0 -28 9 -22 5 3 7 0 4 -9 -3 -8 3 -19 15 -26 12 -6 21 -16 21 -23 0 -7
-4 -6 -10 3 -6 9 -10 10 -10 3 0 -6 11 -20 25 -31 14 -11 25 -25 25 -31 0 -6
5 -11 11 -11 5 0 7 -4 4 -10 -3 -5 -2 -10 4 -10 5 0 8 -8 6 -17 -2 -10 -4 -21
-4 -25 -1 -5 -5 -8 -11 -8 -5 0 -6 8 -3 18 6 15 5 16 -12 2 -17 -13 -18 -13
-13 1 4 9 1 22 -5 29 -9 10 -9 11 3 6 8 -4 7 -1 -4 8 -10 8 -15 20 -11 26 4 6
-8 17 -29 25 -20 9 -36 22 -36 31 0 9 -5 12 -12 8 -8 -5 -9 0 -6 14 4 13 1 25
-6 30 -7 4 -15 19 -18 34 -3 15 -1 25 3 22 5 -3 9 0 9 5 0 6 3 11 6 11 3 0 3
-8 0 -17z m-600 -36 c6 -3 14 -3 18 0 12 13 46 13 46 0 0 -9 2 -9 9 1 4 8 12
14 16 14 4 0 12 -6 16 -14 5 -7 9 -8 9 -2 0 6 7 11 15 11 8 0 15 -5 15 -11 0
-6 5 -5 12 2 14 14 32 16 24 4 -6 -10 25 -9 42 2 7 4 12 2 12 -6 0 -11 2 -11
9 0 6 10 10 10 21 -2 7 -9 17 -13 23 -9 6 3 7 1 3 -5 -4 -7 -2 -12 3 -12 6 0
11 -15 11 -33 0 -18 6 -39 13 -46 10 -11 10 -13 0 -7 -7 4 -13 2 -13 -3 0 -6
5 -11 11 -11 6 0 9 -6 6 -14 -3 -7 0 -19 6 -26 9 -10 9 -11 -3 -6 -8 4 -6 0 4
-8 11 -9 15 -16 10 -16 -6 0 -11 -7 -11 -15 0 -8 4 -15 8 -15 5 0 6 -7 3 -15
-4 -8 -11 -12 -18 -8 -6 4 -6 1 2 -9 10 -13 10 -17 -4 -22 -10 -4 -20 -3 -23
2 -3 5 -14 11 -24 15 -9 4 -16 12 -15 19 2 7 -5 12 -14 10 -11 -2 -18 3 -18
13 0 9 -9 15 -22 15 -19 0 -20 2 -8 10 13 8 12 10 -5 11 -11 1 -26 1 -32 0 -8
-1 -10 5 -6 15 4 12 3 15 -6 10 -8 -5 -14 -1 -18 13 -3 12 -13 21 -22 21 -9 0
-23 9 -31 20 -8 11 -18 20 -22 20 -4 0 -16 7 -25 15 -10 9 -33 27 -51 42 -23
18 -30 28 -21 33 13 9 29 8 45 -3z m-566 -218 c-12 -9 -11 -9 5 -4 29 11 95
13 89 3 -3 -4 -1 -8 4 -8 11 0 9 -37 -3 -47 -4 -5 -5 -2 -1 5 4 6 2 12 -5 12
-6 0 -9 -8 -6 -20 3 -11 1 -20 -3 -20 -5 0 -7 -11 -5 -25 2 -18 -1 -23 -10
-15 -8 7 -10 2 -7 -22 3 -20 1 -29 -6 -24 -6 4 -9 -4 -7 -19 1 -14 -2 -25 -7
-25 -5 0 -6 -4 -3 -10 3 -5 1 -10 -6 -10 -8 0 -8 -4 1 -16 11 -12 11 -15 1
-12 -8 2 -15 -8 -17 -22 -2 -14 -7 -32 -11 -40 -11 -25 -12 -59 -2 -65 5 -4 7
-11 3 -16 -3 -5 -2 -9 3 -8 18 3 34 -1 29 -9 -2 -4 6 -9 20 -10 13 -1 24 4 24
11 0 8 3 9 8 1 5 -7 15 -3 32 14 14 13 20 22 14 19 -6 -3 -11 0 -11 8 0 8 4
12 8 9 10 -6 20 12 24 43 1 14 8 29 15 33 9 6 9 9 0 15 -8 5 -6 11 7 22 10 8
12 12 6 8 -7 -3 -13 -1 -13 4 0 6 5 11 10 11 6 0 10 9 10 20 0 11 5 20 11 20
6 0 9 9 6 20 -3 11 -1 20 3 20 5 0 7 9 5 20 -2 11 0 18 6 15 5 -4 9 4 9 16 0
12 8 28 18 36 9 8 11 11 3 7 -10 -5 -12 -3 -6 6 6 10 11 10 20 -3 7 -10 16
-17 21 -17 18 0 76 -69 68 -81 -4 -7 -3 -10 2 -7 13 8 31 -15 28 -35 -1 -10 4
-17 13 -17 13 0 13 -2 2 -17 -10 -11 -10 -14 -1 -9 12 7 16 -4 13 -33 -2 -7 2
-11 7 -7 5 3 9 -8 9 -24 0 -17 -4 -30 -9 -30 -5 0 -6 -5 -3 -10 4 -6 12 -7 18
-3 7 3 4 -3 -6 -14 -13 -15 -15 -23 -7 -28 9 -6 9 -10 -1 -16 -12 -7 -12 -9 0
-9 10 0 11 -3 2 -14 -9 -11 -9 -15 1 -19 7 -3 4 -6 -7 -6 -17 -1 -17 -3 -5
-11 12 -7 12 -10 1 -10 -8 0 -11 -6 -7 -16 4 -10 2 -13 -6 -8 -7 5 -9 0 -6
-14 3 -12 2 -20 -2 -19 -4 1 -8 -2 -9 -6 0 -4 -10 -17 -23 -28 -13 -11 -16
-18 -8 -14 8 4 6 -1 -5 -10 -11 -9 -20 -21 -20 -27 0 -6 -9 -12 -20 -14 -10
-2 -28 -13 -38 -26 -10 -13 -15 -16 -11 -8 6 12 5 13 -8 3 -8 -7 -19 -9 -23
-5 -5 4 -5 2 -2 -4 9 -17 -29 -49 -39 -33 -4 7 -3 10 4 5 6 -3 13 -2 16 3 8
12 -18 8 -35 -6 -8 -5 -24 -9 -36 -8 -15 1 -23 -4 -23 -14 0 -11 -3 -12 -8 -4
-4 6 -22 10 -40 9 -17 -1 -32 3 -32 8 0 6 -4 5 -9 -3 -6 -9 -11 -10 -15 -3 -4
6 -14 8 -23 5 -12 -5 -14 -3 -8 8 6 11 5 11 -5 2 -10 -9 -17 -9 -34 0 -11 7
-23 15 -26 19 -3 3 -12 8 -20 10 -20 4 -39 22 -33 31 2 4 1 7 -4 6 -21 -4 -33
2 -33 17 0 8 -5 12 -11 9 -6 -4 -13 2 -16 14 -3 12 -12 21 -20 21 -10 0 -14 7
-10 20 3 11 1 18 -4 14 -5 -3 -9 2 -9 10 0 9 -4 16 -9 16 -5 0 -12 7 -15 16
-3 8 -2 12 4 9 6 -3 10 -1 10 4 0 6 -7 11 -16 11 -14 0 -15 2 -3 17 12 14 12
16 0 8 -11 -6 -13 -3 -9 13 3 12 1 24 -6 27 -8 3 -7 7 2 11 10 5 9 9 -4 18
-13 10 -14 15 -4 21 9 6 11 4 5 -5 -5 -8 -4 -11 3 -6 7 4 8 17 2 35 -4 15 -4
34 0 41 5 7 7 22 5 32 -2 10 0 16 6 13 5 -4 10 1 10 9 1 9 3 21 4 26 1 6 3 15
4 21 0 5 6 7 12 4 6 -4 9 0 7 11 -2 11 2 18 9 17 7 -2 12 3 10 10 -1 6 4 11
12 9 12 -3 12 0 1 13 -11 13 -10 14 5 9 11 -5 16 -4 12 3 -4 5 5 21 18 33 14
13 25 19 25 14 0 -5 6 -2 13 7 7 9 17 18 22 20 6 2 9 7 8 11 -2 4 4 5 12 2 9
-4 15 0 15 7 0 11 2 11 10 -1 8 -12 10 -12 15 2 4 9 13 14 20 12 7 -3 16 -1
20 5 3 6 12 11 18 11 7 0 6 -4 -3 -11z m1623 -2 c-4 -7 1 -6 11 2 13 11 22 12
35 4 11 -7 23 -8 32 -2 22 14 32 11 25 -7 -5 -13 -4 -14 7 -6 10 9 17 8 27 -1
10 -9 11 -9 6 0 -5 8 2 8 20 -2 15 -8 32 -11 38 -8 6 4 4 -2 -4 -13 -8 -10
-10 -16 -6 -12 5 4 16 2 24 -5 13 -10 14 -9 7 3 -4 8 2 5 14 -8 12 -12 28 -19
34 -16 7 4 9 4 5 -1 -5 -5 1 -14 12 -22 11 -8 20 -21 20 -29 0 -9 5 -12 12 -8
7 5 9 0 6 -14 -4 -15 -2 -19 8 -15 10 4 14 -3 14 -21 0 -16 6 -26 15 -26 9 0
12 -6 9 -15 -4 -9 0 -15 7 -15 11 0 11 -3 -1 -10 -10 -6 -11 -10 -2 -10 6 0
12 -5 12 -11 0 -5 -6 -7 -12 -4 -7 4 -6 1 2 -7 9 -8 14 -27 13 -51 -2 -27 1
-36 10 -30 7 4 7 0 -2 -10 -7 -9 -11 -26 -8 -37 3 -11 0 -23 -5 -27 -7 -4 -8
-1 -3 7 5 9 4 11 -4 6 -9 -6 -9 -11 0 -22 9 -11 9 -14 0 -14 -7 0 -9 -4 -6
-10 3 -5 3 -10 -2 -10 -4 0 -13 -11 -19 -24 -10 -21 -9 -23 4 -18 11 4 10 0
-4 -15 -10 -11 -23 -18 -28 -15 -5 3 -7 -1 -4 -9 6 -17 -22 -50 -35 -42 -6 4
-8 -1 -4 -11 4 -9 3 -15 -2 -11 -6 3 -14 -3 -20 -12 -8 -14 -11 -15 -11 -3 -1
9 -5 6 -10 -7 -5 -13 -16 -23 -25 -23 -8 0 -15 -6 -15 -12 0 -9 -4 -8 -10 2
-6 10 -10 11 -10 3 0 -7 -7 -13 -15 -13 -8 0 -15 -5 -15 -10 0 -12 -22 -9 -32
5 -5 6 -8 5 -8 -2 0 -7 -11 -13 -24 -13 -13 0 -27 -6 -29 -12 -3 -8 -6 -5 -6
5 -1 10 -6 15 -11 12 -6 -4 -7 -12 -3 -18 5 -9 3 -9 -8 0 -8 7 -34 13 -57 14
-23 2 -42 7 -42 11 0 4 -9 8 -21 8 -12 0 -17 4 -13 11 4 7 -1 7 -16 -1 -12 -7
-20 -8 -17 -3 6 10 -19 34 -27 26 -3 -4 -6 0 -6 7 0 7 -3 11 -6 7 -8 -8 -34
18 -34 33 0 6 -3 9 -7 7 -5 -3 -14 1 -21 9 -7 8 -10 14 -7 14 3 0 -5 11 -19
23 -19 18 -23 26 -14 35 9 9 8 12 -4 12 -9 0 -20 5 -24 12 -5 7 -3 8 7 3 11
-7 12 -6 3 6 -17 22 -23 58 -12 66 7 3 8 1 4 -5 -4 -7 -2 -12 3 -12 6 0 11 4
11 8 0 10 30 9 48 -2 6 -4 12 -3 12 2 0 12 60 10 60 -3 0 -7 3 -7 8 0 9 13
103 15 95 2 -3 -6 -1 -7 4 -4 20 12 93 18 93 7 0 -5 5 -10 11 -10 5 0 7 5 4
10 -6 9 8 14 28 11 5 -1 11 8 14 19 3 11 9 18 13 15 4 -3 7 11 7 30 -1 19 -5
35 -9 35 -4 0 -8 6 -8 14 0 8 -7 17 -16 20 -9 3 -14 13 -11 21 4 8 -2 16 -14
20 -10 4 -19 11 -19 16 0 6 6 7 13 4 6 -4 4 0 -5 8 -10 8 -15 17 -11 20 3 4 1
7 -5 7 -7 0 -12 7 -12 16 0 8 -4 12 -10 9 -5 -3 -10 3 -10 14 0 11 -10 27 -22
35 -12 9 -19 16 -14 16 5 0 3 6 -3 13 -6 8 -7 18 -3 22 4 5 1 5 -5 1 -8 -4
-13 -1 -13 9 0 9 -5 13 -10 10 -6 -4 -9 -1 -8 6 5 23 22 37 41 33 9 -1 17 0
17 4 0 4 9 8 20 9 13 1 18 -2 13 -10z m-416 -122 c0 -8 -4 -12 -9 -9 -4 3 -8
-4 -8 -15 0 -12 -4 -21 -10 -21 -5 0 -7 -7 -4 -15 4 -8 2 -15 -4 -15 -5 0 -8
-10 -7 -22 1 -13 -4 -34 -11 -48 -8 -14 -14 -20 -14 -14 0 7 -8 11 -17 10 -10
0 -19 7 -21 17 -2 11 3 17 15 18 11 0 13 3 5 6 -10 4 -9 10 5 25 9 11 12 18 6
16 -6 -2 -11 2 -10 7 1 30 12 45 39 54 16 6 27 15 23 21 -3 5 0 7 8 4 7 -2 14
-11 14 -19z m220 -4 c3 -11 11 -22 19 -25 8 -3 11 -12 7 -22 -4 -12 -3 -15 5
-10 8 5 12 0 12 -14 0 -11 7 -23 16 -27 8 -3 13 -12 10 -20 -3 -8 -1 -11 4 -8
6 3 10 -4 9 -17 0 -13 -3 -17 -6 -10 -4 10 -8 10 -19 1 -10 -8 -14 -8 -14 0 0
6 -5 11 -11 11 -5 0 -7 -5 -3 -11 5 -8 1 -8 -14 0 -14 8 -23 8 -27 1 -5 -8
-11 -7 -20 0 -8 7 -19 9 -25 5 -25 -15 -58 -12 -63 6 -3 11 -2 19 3 19 4 0 7
10 6 23 0 12 4 21 11 20 6 -2 11 5 10 15 -2 25 44 82 66 82 10 0 21 -9 24 -19z
m-602 -279 c-3 -3 -11 0 -18 7 -9 10 -8 11 6 5 10 -3 15 -9 12 -12z"/>
<path d="M1189 1303 c-13 -16 -12 -17 4 -4 9 7 17 15 17 17 0 8 -8 3 -21 -13z"/>
<path d="M1584 358 l-19 -23 23 19 c21 18 27 26 19 26 -2 0 -12 -10 -23 -22z"/>
</g>
</svg>
